<svg xmlns="http://www.w3.org/2000/svg" xmlns:xlink="http://www.w3.org/1999/xlink" aria-hidden="true" focusable="false"   style="-ms-transform: rotate(360deg); -webkit-transform: rotate(360deg); transform: rotate(360deg);color: rgb(46, 200, 102);" preserveAspectRatio="xMidYMid meet" viewBox="0 0 24 24" class="iconify" data-icon="simple-icons:hackerrank" data-inline="false" width="48"  height="48" ><path fill="#2EC866" d="M0 0v24h24V0zm9.95 8.002h1.805c.061 0 .111.05.111.111v7.767c0 .061-.05.111-.11.111H9.95a.111.111 0 0 1-.111-.11v-2.87H7.894v2.87c0 .06-.05.11-.11.11H5.976a.11.11 0 0 1-.11-.11V8.112c0-.06.05-.11.11-.11h1.806c.061 0 .11.05.11.11v2.869H9.84v-2.87c0-.06.05-.11.11-.11zm2.999 0h5.778c.061 0 .111.05.111.11v7.767a.11.11 0 0 1-.11.112h-5.78a.11.11 0 0 1-.11-.11v-7.77c0-.06.05-.11.11-.11z"></path></svg>