<svg width="600" height="533" viewBox="0 0 600 533" fill="none" xmlns="http://www.w3.org/2000/svg">
<g clip-path="url(#clip0_231_230)">
<rect width="600" height="533"/>
<path d="M584 221.521C573.697 304.862 519.861 378.747 450.943 426.786C445.35 430.689 439.618 434.432 433.748 438.017C433.012 438.467 432.276 438.917 431.54 439.358C390.588 463.915 343.67 479.645 296.536 474.739C258.241 470.759 220.639 450.399 198.198 419.985C197.773 419.414 197.349 418.826 196.942 418.246C187.8 405.575 181.601 391.026 178.795 375.658C174.76 352.91 177.895 327.757 165.358 308.349C149.098 283.17 114.275 279.069 84.3098 280.012C56.3011 280.886 28.3356 283.915 0.36149 285.489C-0.20994 285.524 -0.790029 285.55 -1.37012 285.585V17.5C-1.36385 12.295 0.595322 5.48637 0.595937 0.986371C0.596551 -3.51372 15.3877 -0.0073616 20.5959 -0.0136288L140.12 -1.5C146.016 -0.729919 150.189 11.0895 156.068 11.4789C158.613 11.6519 161.156 11.7904 163.695 11.8942C177.055 12.448 190.397 12.2144 203.722 11.4789C211.505 11.0549 221.02 -0.790487 228.795 -1.5H453.783C455.463 -0.946234 457.125 -0.36651 458.787 0.230519C465.95 2.81009 472.947 5.82687 479.74 9.26383C554.684 47.2401 594.303 138.179 584 221.521Z" fill="#00072D"/>
<path d="M491.246 111.739C456.363 144.187 410.155 165.005 362.692 169.997C358.034 170.49 353.364 170.828 348.683 171.01C347.644 171.053 346.605 171.079 345.558 171.105C343.861 171.148 342.155 171.165 340.458 171.165C338.424 171.165 336.389 171.136 334.354 171.079C322.577 170.735 310.846 169.454 299.272 167.246C298.848 167.159 298.432 167.081 298.008 166.995C296.181 166.64 294.36 166.259 292.545 165.853C289.064 165.083 285.601 164.229 282.155 163.291C281.038 162.989 279.922 162.677 278.805 162.348C277.203 161.89 275.61 161.405 274.017 160.912C273.419 160.722 272.822 160.54 272.225 160.341C271.619 160.151 271.012 159.952 270.406 159.744C266.709 158.533 263.044 157.217 259.411 155.798C238.718 147.809 219.346 136.751 201.948 122.996C199.541 121.084 197.099 119.077 194.744 117.13C182.086 106.695 168.995 95.9052 153.039 93.5517C135.809 91.0165 119.255 98.8557 103.255 106.435C97.8267 109.005 92.2163 111.662 86.6665 113.885C59.5749 124.55 29.7177 125.977 1.7316 117.943C1.15151 117.788 0.571428 117.615 0 117.441V115.633C0.571428 115.806 1.15151 115.979 1.7316 116.144C29.4831 124.217 59.1313 122.857 86.0258 112.276C91.5236 110.078 97.1167 107.43 102.519 104.869C118.753 97.1771 135.541 89.2254 153.29 91.8385C169.723 94.2612 183.004 105.207 195.844 115.797C198.199 117.736 200.632 119.743 203.021 121.647C220.304 135.313 239.551 146.296 260.112 154.224H260.121C263.601 155.573 267.125 156.845 270.666 158.022C271.177 158.186 271.688 158.351 272.199 158.524C272.77 158.706 273.35 158.887 273.922 159.069C275.385 159.536 276.851 159.98 278.32 160.402C279.757 160.834 281.203 161.244 282.657 161.63H282.666C286.389 162.643 290.135 163.557 293.904 164.373C295.61 164.754 297.315 165.1 299.038 165.429C299.411 165.507 299.792 165.576 300.173 165.645C311.276 167.739 322.524 168.971 333.818 169.331H333.826C337.748 169.452 341.665 169.466 345.575 169.374C346.597 169.348 347.61 169.314 348.623 169.279C353.047 169.106 357.465 168.795 361.878 168.345H361.887C409.203 163.508 455.298 142.811 490.068 110.468C490.237 110.313 490.461 110.231 490.69 110.24C490.919 110.25 491.135 110.349 491.291 110.517C491.447 110.686 491.529 110.909 491.521 111.138C491.512 111.367 491.414 111.583 491.246 111.739Z" fill="#6C63FF"/>
<path d="M0.268396 78.6868C0.215102 78.9083 0.124331 79.119 0 79.3098V76.8958C0.316152 77.4362 0.412246 78.0775 0.268396 78.6868Z" fill="#FF6584"/>
<path d="M7.10027 87.8518C7.27399 86.2981 6.53806 84.9407 5.45653 84.8199C4.37499 84.6991 3.35741 85.8607 3.18369 87.4145C3.00997 88.9682 3.7459 90.3257 4.82743 90.4465C5.90897 90.5672 6.92655 89.4056 7.10027 87.8518Z" fill="#E6E6E6"/>
<path d="M9.50945 106.202C9.68317 104.648 8.94724 103.291 7.86571 103.17C6.78417 103.049 5.76659 104.211 5.59287 105.764C5.41915 107.318 6.15508 108.676 7.23661 108.796C8.31815 108.917 9.33573 107.755 9.50945 106.202Z" fill="#3F3D56"/>
<path d="M437.196 252.539C437.619 250.871 436.017 249.026 433.618 248.419C431.218 247.811 428.93 248.671 428.507 250.339C428.084 252.007 429.686 253.852 432.086 254.459C434.485 255.067 436.773 254.207 437.196 252.539Z" fill="white"/>
<path d="M407.894 252.35C408.317 250.682 406.714 248.837 404.315 248.229C401.915 247.621 399.627 248.481 399.204 250.149C398.781 251.817 400.384 253.662 402.783 254.27C405.182 254.878 407.471 254.018 407.894 252.35Z" fill="#3F3D56"/>
<path d="M442.693 276.834C443.116 275.166 441.514 273.321 439.114 272.713C436.715 272.106 434.427 272.965 434.004 274.633C433.581 276.301 435.183 278.146 437.582 278.754C439.982 279.362 442.27 278.502 442.693 276.834Z" fill="#FF6584"/>
<path d="M449.525 285.997C449.698 284.443 448.962 283.086 447.881 282.965C446.799 282.844 445.782 284.006 445.608 285.56C445.434 287.113 446.17 288.471 447.252 288.591C448.333 288.712 449.351 287.551 449.525 285.997Z" fill="#E6E6E6"/>
<path d="M451.933 304.347C452.107 302.793 451.371 301.436 450.29 301.315C449.208 301.194 448.19 302.356 448.017 303.909C447.843 305.463 448.579 306.821 449.66 306.941C450.742 307.062 451.76 305.9 451.933 304.347Z" fill="#3F3D56"/>
<path d="M421.977 269.376C422.151 267.822 421.415 266.465 420.333 266.344C419.252 266.223 418.234 267.385 418.061 268.939C417.887 270.492 418.623 271.85 419.704 271.971C420.786 272.091 421.804 270.93 421.977 269.376Z" fill="#E6E6E6"/>
<path d="M436.722 263.84C436.896 262.287 436.16 260.929 435.079 260.808C433.997 260.688 432.979 261.849 432.806 263.403C432.632 264.957 433.368 266.314 434.45 266.435C435.531 266.556 436.549 265.394 436.722 263.84Z" fill="#FF6584"/>
<path d="M418.556 248.883C418.73 247.329 417.994 245.971 416.912 245.851C415.831 245.73 414.813 246.892 414.639 248.445C414.466 249.999 415.201 251.356 416.283 251.477C417.365 251.598 418.382 250.436 418.556 248.883Z" fill="#3F3D56"/>
<path d="M43.2559 47.4734C43.6789 45.8053 42.0767 43.9604 39.6772 43.3527C37.2778 42.745 34.9897 43.6046 34.5667 45.2728C34.1437 46.9409 35.7459 48.7858 38.1454 49.3935C40.5448 50.0012 42.8329 49.1416 43.2559 47.4734Z" fill="white"/>
<path d="M13.9541 47.2845C14.3771 45.6163 12.7749 43.7714 10.3755 43.1637C7.97601 42.556 5.68796 43.4157 5.26495 45.0838C4.84194 46.752 6.44416 48.5969 8.84361 49.2046C11.2431 49.8123 13.5311 48.9526 13.9541 47.2845Z" fill="#3F3D56"/>
<path d="M48.7544 71.7684C49.1774 70.1002 47.5752 68.2553 45.1758 67.6476C42.7763 67.0399 40.4883 67.8996 40.0652 69.5677C39.6422 71.2358 41.2444 73.0808 43.6439 73.6885C46.0433 74.2962 48.3314 73.4365 48.7544 71.7684Z" fill="#FF6584"/>
<path d="M55.5851 80.9297C55.7589 79.376 55.0229 78.0185 53.9414 77.8978C52.8599 77.777 51.8423 78.9386 51.6686 80.4924C51.4948 82.0461 52.2308 83.4036 53.3123 83.5243C54.3938 83.6451 55.4114 82.4834 55.5851 80.9297Z" fill="#E6E6E6"/>
<path d="M57.9943 99.2796C58.168 97.7259 57.4321 96.3684 56.3506 96.2476C55.269 96.1269 54.2514 97.2885 54.0777 98.8422C53.904 100.396 54.6399 101.753 55.7215 101.874C56.803 101.995 57.8206 100.833 57.9943 99.2796Z" fill="#3F3D56"/>
<path d="M28.0378 64.3096C28.2115 62.7559 27.4756 61.3984 26.394 61.2777C25.3125 61.1569 24.2949 62.3185 24.1212 63.8723C23.9475 65.426 24.6834 66.7835 25.7649 66.9042C26.8465 67.025 27.8641 65.8634 28.0378 64.3096Z" fill="#E6E6E6"/>
<path d="M42.7834 58.7733C42.9571 57.2195 42.2212 55.8621 41.1396 55.7413C40.0581 55.6205 39.0405 56.7822 38.8668 58.3359C38.6931 59.8896 39.429 61.2471 40.5105 61.3678C41.5921 61.4886 42.6097 60.327 42.7834 58.7733Z" fill="#FF6584"/>
<path d="M24.6169 43.8157C24.7906 42.262 24.0547 40.9046 22.9731 40.7838C21.8916 40.663 20.874 41.8246 20.7003 43.3784C20.5266 44.9321 21.2625 46.2896 22.344 46.4103C23.4256 46.5311 24.4432 45.3695 24.6169 43.8157Z" fill="#3F3D56"/>
<path d="M137.119 171.404C139.032 171.404 140.582 169.854 140.582 167.942C140.582 166.031 139.032 164.481 137.119 164.481C135.206 164.481 133.656 166.031 133.656 167.942C133.656 169.854 135.206 171.404 137.119 171.404Z" fill="white"/>
<path d="M52.2707 204.283C53.227 204.283 54.0023 203.509 54.0023 202.553C54.0023 201.597 53.227 200.822 52.2707 200.822C51.3143 200.822 50.5391 201.597 50.5391 202.553C50.5391 203.509 51.3143 204.283 52.2707 204.283Z" fill="white"/>
<path d="M395.994 333.208C396.95 333.208 397.725 332.434 397.725 331.478C397.725 330.522 396.95 329.747 395.994 329.747C395.037 329.747 394.262 330.522 394.262 331.478C394.262 332.434 395.037 333.208 395.994 333.208Z" fill="white"/>
<path d="M172.617 253.604C173.574 253.604 174.349 252.829 174.349 251.873C174.349 250.918 173.574 250.143 172.617 250.143C171.661 250.143 170.886 250.918 170.886 251.873C170.886 252.829 171.661 253.604 172.617 253.604Z" fill="white"/>
<path d="M203.786 72.7645C204.742 72.7645 205.517 71.9897 205.517 71.034C205.517 70.0782 204.742 69.3035 203.786 69.3035C202.829 69.3035 202.054 70.0782 202.054 71.034C202.054 71.9897 202.829 72.7645 203.786 72.7645Z" fill="white"/>
<path d="M486.904 139.389C487.86 139.389 488.636 138.614 488.636 137.659C488.636 136.703 487.86 135.928 486.904 135.928C485.948 135.928 485.172 136.703 485.172 137.659C485.172 138.614 485.948 139.389 486.904 139.389Z" fill="white"/>
<path d="M84.3053 49.4025C85.2617 49.4025 86.0369 48.6277 86.0369 47.6719C86.0369 46.7162 85.2617 45.9414 84.3053 45.9414C83.349 45.9414 82.5737 46.7162 82.5737 47.6719C82.5737 48.6277 83.349 49.4025 84.3053 49.4025Z" fill="white"/>
<path d="M399.456 40.7497C401.369 40.7497 402.92 39.2002 402.92 37.2887C402.92 35.3772 401.369 33.8276 399.456 33.8276C397.544 33.8276 395.993 35.3772 395.993 37.2887C395.993 39.2002 397.544 40.7497 399.456 40.7497Z" fill="white"/>
<path d="M554.433 497.179H552.701C552.701 487.194 543.342 477.425 524.874 468.141C506.805 459.056 480.9 450.888 447.896 443.87C443.013 442.832 438.017 441.828 432.909 440.859C406.485 435.841 377.125 431.731 345.68 428.607C339.177 427.958 332.583 427.355 325.896 426.799C323.731 426.608 321.55 426.435 319.359 426.254C313.273 425.778 307.122 425.334 300.909 424.921C268.476 422.775 234.424 421.607 199.567 421.486C197.515 421.469 195.454 421.469 193.394 421.469C148 421.469 137.749 425.752 137.143 429.351C135.593 438.454 188.095 456.737 238.866 474.431C295.065 494.004 352.822 514.129 372.493 531.27C373.16 531.85 373.783 532.43 374.364 533.001H371.983C371.351 532.43 370.667 531.85 369.939 531.27C349.169 514.692 290.909 494.393 238.294 476.058C173.411 453.457 133.731 439.094 135.428 429.057C136.164 424.714 143.42 419.738 193.394 419.738C195.03 419.738 196.675 419.738 198.311 419.747C233.16 419.842 267.212 420.984 299.679 423.113C306.026 423.519 312.309 423.969 318.528 424.463C320.84 424.644 323.143 424.826 325.437 425.025C332.294 425.596 339.062 426.213 345.74 426.877C378.017 430.078 408.121 434.318 435.117 439.518C439.584 440.383 443.965 441.272 448.26 442.183C516.727 456.737 554.433 476.266 554.433 497.179Z" fill="#E6E6E6"/>
<path d="M527.595 493.006H525.863C525.863 485.616 495.657 477.705 450.69 477.705C405.724 477.705 375.518 485.616 375.518 493.006H373.786C373.786 482.345 412.888 475.974 450.69 475.974C488.493 475.974 527.595 482.345 527.595 493.006Z" fill="#E6E6E6"/>
<path d="M497.383 498.04H495.651C495.651 493.867 477.291 489.216 450.944 489.216C424.598 489.216 406.237 493.867 406.237 498.04H404.505C404.505 491.185 428.432 487.486 450.944 487.486C473.457 487.486 497.383 491.185 497.383 498.04Z" fill="#E6E6E6"/>
<path d="M312.01 116.028C331.137 116.028 346.642 100.532 346.642 81.4172C346.642 62.3023 331.137 46.8066 312.01 46.8066C292.883 46.8066 277.378 62.3023 277.378 81.4172C277.378 100.532 292.883 116.028 312.01 116.028Z" fill="#F2F2F2"/>
<path d="M306.816 118.623C325.943 118.623 341.448 103.128 341.448 84.0129C341.448 64.898 325.943 49.4023 306.816 49.4023C287.689 49.4023 272.184 64.898 272.184 84.0129C272.184 103.128 287.689 118.623 306.816 118.623Z" fill="#F2F2F2"/>
<path d="M344.911 462.948L312.45 462.947V462.537C312.45 459.188 313.782 455.976 316.151 453.608C318.52 451.241 321.734 449.91 325.085 449.91L331.015 445.415L342.078 449.911L344.911 449.911L344.911 462.948Z" fill="#F2F2F2"/>
<path d="M329.799 445.427L302.065 462.285L301.852 461.934C300.111 459.073 299.578 455.638 300.371 452.384C301.164 449.131 303.218 446.325 306.081 444.585L308.809 437.664L320.599 435.76L323.02 434.289L329.799 445.427Z" fill="#F2F2F2"/>
<path d="M348.868 353.515C348.72 354.553 348.504 358.083 348.253 363.223C347.032 388.143 344.911 450.883 344.911 450.883L331.69 446.773C331.69 446.773 315.967 399.374 318.565 373.416L316.695 364.383L313.491 348.946V348.938L303.734 301.928C303.734 301.928 301.595 314.665 301.422 317.65C301.249 320.635 299.517 321.5 298.651 321.5C294.314 321.5 295.647 320.73 296.279 325.013C296.738 328.094 292.98 345.754 290.833 355.41C290.002 359.165 289.413 361.709 289.413 361.709L293.084 369.617L323.517 435.204L312.011 441.365L266.106 373.372L261.578 366.667L260.608 359.148L252.972 299.99C252.972 299.99 250.591 293.301 252.972 293.128C255.361 292.947 256.712 293.699 256.037 291.164C255.361 288.62 269.214 246.223 269.214 246.223L341.075 261.797C341.075 261.797 348.158 275.866 345.404 282.564C342.643 289.261 347.664 341.124 344.798 343.426C341.941 345.728 340.097 343.884 344.045 347.839C344.649 348.469 345.362 348.984 346.149 349.362C348.591 350.469 349.56 348.669 348.868 353.515Z" fill="#F2F2F2"/>
<path d="M306.591 105.575C317.615 105.575 326.552 96.6436 326.552 85.626C326.552 74.6083 317.615 65.6768 306.591 65.6768C295.566 65.6768 286.629 74.6083 286.629 85.626C286.629 96.6436 295.566 105.575 306.591 105.575Z" fill="#A0616A"/>
<path d="M322.147 102.807L314.233 104.321C314.233 104.321 321.592 92.4496 321.16 87.0158C320.727 81.582 314.805 79.6351 314.805 79.6351C314.805 79.6351 311.523 80.3447 308.069 80.7427C307.655 79.5785 307.118 78.4617 306.467 77.4114C306.339 78.7673 305.738 80.0352 304.77 80.9936C303.504 81.1023 302.229 80.9551 301.021 80.561C299.653 79.938 299.679 78.8564 300.129 77.8441C295.671 78.2118 291.319 79.406 287.298 81.3657C287.099 78.7093 287.201 76.0389 287.601 73.4053C287.792 73.3534 287.982 73.2928 288.173 73.2322C289.353 72.8591 290.49 72.3632 291.567 71.7526C290.369 71.5937 289.25 71.0678 288.363 70.2471C289.09 68.1185 290.25 66.2755 292.077 65.3757C293.84 64.5142 295.767 64.0413 297.728 63.9891C299.69 63.9368 301.639 64.3064 303.445 65.0728C303.445 65.0728 299.212 61.9838 300.77 60.7206C300.874 60.8244 300.978 60.9196 301.09 61.0148C301.238 61.1358 301.402 61.2657 301.558 61.3868C302.519 62.1656 303.956 61.0667 304.147 59.8899C304.167 59.7413 304.196 59.594 304.233 59.4486C304.259 59.3275 304.294 59.2064 304.328 59.0939C304.358 58.994 304.392 58.8958 304.432 58.7997C307.315 58.1075 316.034 60.9196 319.385 67.1148C319.385 67.1148 342.805 78.3632 322.147 102.807Z" fill="#3F3D56"/>
<path d="M314.917 280.67C314.628 278.677 315.129 276.65 316.313 275.021C317.496 273.391 319.27 272.288 321.255 271.945C321.66 271.882 322.069 271.852 322.479 271.856L343.35 223.417L357.669 234.16L329.791 280.049C329.642 281.744 328.936 283.344 327.782 284.596C326.629 285.849 325.092 286.684 323.414 286.973C322.457 287.128 321.479 287.093 320.535 286.87C319.592 286.647 318.702 286.241 317.915 285.674C317.129 285.107 316.462 284.392 315.953 283.567C315.443 282.743 315.101 281.827 314.946 280.87C314.936 280.804 314.926 280.737 314.917 280.67Z" fill="#0E6BA8"/>
<path d="M256.447 284.618C257.852 283.175 258.637 281.24 258.636 279.227C258.635 277.213 257.848 275.279 256.442 273.837C256.152 273.548 255.838 273.284 255.504 273.047L267.067 221.589L249.165 221.884L244.772 275.388C243.896 276.848 243.528 278.557 243.726 280.248C243.924 281.938 244.677 283.516 245.866 284.735C246.55 285.422 247.362 285.967 248.257 286.341C249.151 286.714 250.111 286.907 251.08 286.91C252.049 286.912 253.01 286.724 253.906 286.356C254.803 285.988 255.618 285.446 256.306 284.763C256.353 284.716 256.401 284.667 256.447 284.618Z" fill="#0E6BA8"/>
<path d="M371.811 198.478C369.214 201.94 365.751 198.037 369.214 203.021C371.595 206.448 357.95 238.566 349.214 258.242C345.266 267.146 342.313 273.505 342.313 273.505L327.586 264.982L325.863 263.987C325.863 263.987 339.37 230.017 343.716 217.808C344.434 215.784 344.911 214.356 345.023 213.785C345.837 209.727 345.941 206.249 345.023 204.959C344.806 204.479 344.621 203.984 344.469 203.48C342.729 198.383 337.43 181.173 332.469 164.898C331.023 160.121 329.595 155.432 328.296 151.149C324.963 140.151 322.46 131.853 322.46 131.853L342.374 132.719C342.374 132.719 342.703 133.272 343.283 134.276C344.668 136.664 347.508 141.587 350.798 147.506C353.17 151.763 355.785 156.548 358.253 161.255C364.538 173.23 369.95 184.764 368.348 186.365C364.885 189.826 361.344 187.862 365.707 192.3C370.08 196.748 374.409 195.017 371.811 198.478Z" fill="#F2F2F2"/>
<path d="M347.998 244.493C342.804 239.354 343.765 215.931 343.765 215.931C343.765 215.931 348.933 137.279 341.938 132.01C337.101 128.521 331.954 125.482 326.561 122.933C326.249 122.795 326.085 122.717 326.085 122.717L321.617 110.127L294.094 108.699L289.288 118.027C289.288 118.027 288.535 118.079 287.358 118.243C282.959 118.849 272.622 120.995 273.54 127.683C274.7 136.163 266.509 188.243 264.016 190.847C261.522 193.452 262.18 202.97 268.345 209.018C274.509 215.066 270.076 231.515 265.747 238.437C263.149 242.673 261.95 247.619 262.319 252.575C262.319 252.575 265.747 271.317 274.405 265.26C277.704 262.949 282.388 262.655 288.024 263.079C288.079 263.083 288.139 263.09 288.194 263.095L288.024 263.945C295.851 264.524 305.522 266.488 315.869 266.376L315.562 265.507C315.665 265.506 315.765 265.512 315.869 265.511C317.617 265.493 319.375 265.415 321.159 265.26C336.587 263.919 343.401 268.158 345.401 263.529C347.401 258.9 353.193 249.633 347.998 244.493Z" fill="#F2F2F2"/>
<path opacity="0.3" d="M306.815 109.971C321.16 109.971 332.789 98.3488 332.789 84.0127C332.789 69.6766 321.16 58.0549 306.815 58.0549C292.47 58.0549 280.841 69.6766 280.841 84.0127C280.841 98.3488 292.47 109.971 306.815 109.971Z" fill="#0E6BA8"/>
<path d="M294.323 123.2C294.323 123.2 290.375 136.3 285.777 151.416C284.331 156.175 282.816 161.133 281.344 165.952C276.539 181.622 272.158 195.743 271.751 196.306C270.834 197.595 270.946 201.073 271.751 205.131C271.916 205.945 271.544 209.112 270.842 213.654C269.924 219.616 268.444 227.94 266.868 236.436C265.613 243.229 264.297 250.125 263.163 256C261.388 265.12 260.063 271.774 260.063 271.774H243.613C243.613 271.774 246.704 202.804 250.167 197.829C253.63 192.845 250.167 196.747 247.57 193.286C244.972 189.825 249.301 191.555 253.665 187.108C258.028 182.669 254.496 184.633 251.033 181.172C249.751 179.892 252.617 171.732 256.738 161.964C258.66 157.43 260.851 152.541 263.015 147.834C267.492 138.117 271.881 129.179 273.621 125.649C273.621 125.64 273.63 125.631 273.63 125.623L274.409 124.065L294.323 123.2Z" fill="#F2F2F2"/>
<path d="M330.194 126.411C312.117 133.428 295.864 134.637 282.575 126.411V110.836C298.226 120.221 314.105 119.964 330.194 110.836V126.411Z" fill="#0E6BA8"/>
<path d="M344.046 225.915C316.109 232.932 290.991 234.142 270.454 225.915V210.34C294.641 219.725 319.182 219.469 344.046 210.34V225.915Z" fill="#0E6BA8"/>
<path d="M348.868 353.514C348.72 354.552 348.504 358.083 348.253 363.222C337.822 364.911 327.222 365.301 316.695 364.382L313.491 348.946C324.277 350.914 335.317 351.054 346.149 349.361C348.591 350.468 349.56 348.669 348.868 353.514Z" fill="#0E6BA8"/>
<path d="M293.084 369.617C284.206 371.592 275.184 372.847 266.105 373.373L261.577 366.667L260.607 359.148C270.812 359.41 281 358.151 290.833 355.41C290.001 359.165 289.413 361.709 289.413 361.709L293.084 369.617Z" fill="#0E6BA8"/>
<path d="M295.561 159.29C295.561 161.585 294.648 163.785 293.025 165.408C291.401 167.031 289.199 167.942 286.903 167.942C284.606 167.942 282.404 167.031 280.781 165.408C279.157 163.785 278.245 161.585 278.245 159.29C278.245 154.511 286.037 144.58 286.903 150.637C287.768 156.694 295.561 154.511 295.561 159.29Z" fill="#0E6BA8"/>
<path d="M287.844 144.619C287.532 144.593 287.22 144.585 286.9 144.585C283.131 144.589 279.507 146.037 276.772 148.629C274.038 151.222 272.401 154.763 272.198 158.524C272.19 158.775 272.181 159.035 272.181 159.294C272.181 159.649 272.19 159.995 272.224 160.341C272.442 163.421 273.625 166.354 275.605 168.725C277.585 171.095 280.262 172.782 283.255 173.546C286.249 174.31 289.407 174.113 292.282 172.982C295.157 171.851 297.603 169.844 299.272 167.246C299.607 166.733 299.908 166.198 300.173 165.645C301.213 163.476 301.706 161.084 301.606 158.68C301.506 156.276 300.817 153.933 299.6 151.857C298.383 149.782 296.674 148.036 294.624 146.774C292.575 145.512 290.246 144.772 287.844 144.619ZM298.008 166.995C296.65 168.627 294.953 169.944 293.035 170.856C291.117 171.767 289.024 172.251 286.9 172.273C283.737 172.268 280.685 171.112 278.314 169.021C275.943 166.93 274.415 164.047 274.017 160.912C273.947 160.376 273.912 159.835 273.913 159.294C273.911 159.219 273.914 159.144 273.921 159.069C273.981 155.668 275.374 152.426 277.801 150.04C280.228 147.655 283.496 146.317 286.9 146.315C286.978 146.523 287.056 146.722 287.142 146.912C290.839 155.651 298.856 154.994 299.887 159.294C300.385 161.373 300.082 163.563 299.038 165.429C298.745 165.982 298.4 166.506 298.008 166.995Z" fill="#0E6BA8"/>
</g>
<defs>
<clipPath id="clip0_231_230">
<rect width="600" height="533" fill="white"/>
</clipPath>
</defs>
</svg>
